<svg width="153" height="90" viewBox="0 0 153 90" fill="none" xmlns="http://www.w3.org/2000/svg">
<path d="M0 35.0697H31.4822V43.2464H0V35.0697ZM9.94125 45.117L9.67127 44.847H21.2131V75.2589H10.4234V60.7279C10.4234 55.7404 10.4234 51.9896 10.4234 49.4753C10.4234 46.9635 10.4041 45.6714 10.3655 45.5991C10.3318 45.4593 10.192 45.2978 9.94125 45.117Z" fill="#355B3E"/>
<path d="M52.0526 34.7515C52.3418 34.6816 52.5925 34.6455 52.8047 34.6455C52.9445 34.6455 53.0867 34.6455 53.2289 34.6455L53.4411 34.5876V38.7531C53.4411 41.5687 53.388 42.9765 53.2868 42.9765C52.7131 42.9765 51.8935 43.2272 50.828 43.7286C47.6508 45.2279 46.1539 49.2199 46.3347 55.7043C46.3732 56.7722 46.4889 57.9655 46.6818 59.2817C46.8794 60.6002 47.2266 61.8658 47.7232 63.0807C48.2246 64.2908 48.9019 65.3419 49.7577 66.2338C50.611 67.1209 51.6982 67.656 53.0168 67.8344L53.3928 67.8826L53.4411 71.8456V75.8472H52.9107C51.5222 75.8472 50.1289 75.676 48.7356 75.3361C47.3471 75.0011 46.0285 74.5214 44.7822 73.8994C43.5336 73.2751 42.3765 72.5013 41.311 71.5756C40.2431 70.65 39.3174 69.599 38.534 68.4226C36.714 65.7493 35.5376 62.3817 35.0049 58.3174C34.9663 57.9968 34.9471 57.5533 34.9471 56.9868C34.9471 56.4155 34.9471 55.7188 34.9471 54.8944C34.9471 54.1109 34.9567 53.436 34.976 52.8695C34.9953 52.2982 35.0242 51.8354 35.0628 51.481C35.3062 49.7719 35.7305 48.1062 36.3355 46.4863C36.9454 44.8615 37.7385 43.3525 38.7172 41.964C39.7007 40.5755 40.8578 39.3582 42.1884 38.3096C43.5239 37.2561 45.0474 36.4438 46.7589 35.8701C48.3258 35.2288 50.0903 34.8552 52.0526 34.7515ZM54.6753 38.7531V34.5876H55.1574C56.6158 34.5876 58.0501 34.7853 59.4579 35.1758C60.8657 35.5687 62.1915 36.1111 63.4402 36.8054C64.6864 37.4996 65.8532 38.3385 66.9403 39.322C68.0251 40.3007 68.9604 41.3927 69.7463 42.6004C71.5976 45.416 72.7547 48.5738 73.2175 52.0692C73.2874 52.3536 73.3332 52.7707 73.3525 53.3227C73.3718 53.8771 73.3814 54.5087 73.3814 55.2222C73.3091 57.2857 73.0584 59.3178 72.6293 61.3162C72.2051 63.3097 71.4385 65.2165 70.3344 67.0341C68.8351 69.529 66.9355 71.5033 64.6358 72.9641C62.3409 74.4225 59.6941 75.3313 56.7002 75.6929C56.4157 75.7243 56.1698 75.7508 55.9577 75.7701C55.7456 75.7893 55.5648 75.799 55.4177 75.799H54.9935L54.9453 73.7162C54.9067 72.3904 54.9067 71.0718 54.9453 69.7532L54.9935 67.8344L55.6877 67.6705C57.0039 67.28 58.0718 66.6749 58.889 65.8577C59.711 65.0357 60.345 64.0908 60.7885 63.0229C61.2369 61.9574 61.5503 60.81 61.7238 59.5806C61.9022 58.3463 62.0131 57.1073 62.0517 55.8586C62.1529 53.1853 61.8516 50.7626 61.1453 48.5883C60.0388 45.2087 58.1851 43.3212 55.5817 42.9282L54.7235 42.7643L54.6753 38.7531Z" fill="#355B3E"/>
<path d="M77.9713 35.2818L77.4891 35.0697H90.7474L90.8052 49.3885V63.5049L91.1234 64.3052C91.6176 65.9059 92.8807 67.0292 94.9128 67.6704C95.3757 67.709 95.6071 67.8343 95.6071 68.0465C95.6071 68.1188 95.6071 68.4756 95.6071 69.1168C95.6071 69.7604 95.5902 70.6861 95.5589 71.8938V75.5868C94.0595 75.5868 92.5625 75.5121 91.0655 75.365C89.5662 75.2228 88.1439 74.7599 86.794 73.9765C85.2247 73.2292 83.8627 72.1975 82.7056 70.8813C81.5486 69.5651 80.7024 68.085 80.1697 66.4458C80.0203 65.9444 79.9021 65.4382 79.8129 64.9223C79.7286 64.4017 79.6683 63.84 79.6297 63.2349C79.596 62.6636 79.5719 61.3258 79.5526 59.2237C79.5333 57.1217 79.5237 54.2917 79.5237 50.7288V48.164C79.5622 45.2785 79.5719 42.9812 79.5526 41.2697C79.5333 39.5606 79.5044 38.4541 79.4658 37.9527C79.4321 37.0271 79.2561 36.3883 78.9355 36.0339C78.6125 35.7133 78.2919 35.4626 77.9713 35.2818ZM99.6183 35.2336C99.4761 35.195 99.5122 35.142 99.7244 35.0697H113.031V48.9643C113.031 53.4576 113.021 56.9168 113.002 59.3394C112.987 61.7573 112.963 63.1096 112.925 63.3989C112.713 65.2502 112.204 66.9352 111.401 68.4514C110.603 69.9629 109.581 71.2333 108.335 72.2698C107.086 73.304 105.659 74.1043 104.054 74.6708C102.453 75.2421 100.742 75.5289 98.9241 75.5289H97.0534L97.1113 71.5177V67.6704L97.4777 67.6222C98.4419 67.4438 99.3146 66.9521 100.1 66.1469C100.884 65.3442 101.436 64.392 101.759 63.2928C101.867 62.8637 101.923 58.5488 101.923 50.3528C101.923 42.017 101.867 37.6876 101.759 37.3645C101.436 36.369 100.722 35.6579 99.6183 35.2336Z" fill="#355B3E"/>
<path d="M131.739 52.0113H134.844C135.731 52.0113 136.44 52.0064 136.975 51.992C137.508 51.9727 137.884 51.9438 138.103 51.9052C138.493 51.8666 138.992 51.7075 139.598 51.4231C140.342 51.0326 140.894 50.4444 141.256 49.6585C141.75 48.5545 141.837 47.3781 141.516 46.1294C141.201 44.8133 140.47 43.9406 139.328 43.5164L138.797 43.1885L135.268 43.1403H132.915V35.0697C134.733 35.0697 136.203 35.0697 137.322 35.0697C138.445 35.0697 139.328 35.0697 139.964 35.0697C140.605 35.0697 141.068 35.0793 141.352 35.0986C141.642 35.1131 141.839 35.1179 141.95 35.1179C144.978 35.3686 147.398 36.234 149.211 37.7117C151.029 39.1918 152.224 41.4481 152.798 44.4806C153.261 47.3998 152.928 49.8393 151.805 51.7991C150.686 53.7613 148.895 54.9377 146.434 55.3282L145.692 55.3764L146.386 55.5404C148.738 55.8947 150.342 57.0518 151.197 59.0116C151.441 59.513 151.643 60.2458 151.805 61.2101C151.964 62.1695 152.118 63.3965 152.268 64.8934C152.692 70.4546 152.904 73.7837 152.904 74.8829V75.2589H141.574L141.468 74.7768C141.43 74.5647 141.401 74.1983 141.381 73.6776C141.367 73.1617 141.326 72.5133 141.256 71.7298C140.933 65.8552 140.506 62.3454 139.974 61.2004C139.793 60.8485 139.185 60.564 138.151 60.3519C137.758 60.282 136.565 60.2121 134.574 60.1397H131.739V75.2589H120.891V55.8103C120.923 51.1049 120.93 47.3637 120.911 44.5867C120.896 41.8048 120.891 39.9342 120.891 38.9748C120.819 37.1572 120.749 36.1761 120.679 36.0339C120.498 35.6048 120.212 35.2987 119.821 35.1179C120.033 35.1179 120.284 35.1179 120.573 35.1179C120.855 35.1179 121.183 35.1131 121.557 35.0986C121.928 35.0793 122.367 35.0697 122.868 35.0697H131.739V52.0113Z" fill="#355B3E"/>
<mask id="mask0_9_403" style="mask-type:luminance" maskUnits="userSpaceOnUse" x="29" y="0" width="33" height="39">
<path d="M29.8327 -4.60148e-05H61.3053V38.2608H29.8327V-4.60148e-05Z" fill="white"/>
</mask>
<g mask="url(#mask0_9_403)">
<mask id="mask1_9_403" style="mask-type:luminance" maskUnits="userSpaceOnUse" x="17" y="-1" width="97" height="88">
<path d="M17.799 63.3958L37.385 -0.308684L113.036 22.951L93.448 86.6556L17.799 63.3958Z" fill="white"/>
</mask>
<g mask="url(#mask1_9_403)">
<mask id="mask2_9_403" style="mask-type:luminance" maskUnits="userSpaceOnUse" x="17" y="-1" width="97" height="88">
<path d="M17.799 63.3958L37.385 -0.308684L113.036 22.951L93.448 86.6556L17.799 63.3958Z" fill="white"/>
</mask>
<g mask="url(#mask2_9_403)">
<mask id="mask3_9_403" style="mask-type:luminance" maskUnits="userSpaceOnUse" x="17" y="-1" width="97" height="88">
<path d="M17.799 63.3958L37.385 -0.308684L113.036 22.951L93.448 86.6556L17.799 63.3958Z" fill="white"/>
</mask>
<g mask="url(#mask3_9_403)">
<path d="M38.0503 0.397608C37.074 0.718216 37.9033 5.68161 38.0045 6.27702C38.5156 9.34811 39.446 11.8117 40.2295 13.5305C39.2098 14.5815 38.1925 15.6301 37.1729 16.6811C37.0451 16.3364 36.9149 15.9893 36.7872 15.6446C36.5341 15.741 36.1701 15.9097 35.8012 16.2135C35.3601 16.5726 35.1022 16.9656 34.9624 17.2211C35.107 17.5441 35.254 17.8647 35.4011 18.1877C33.6775 20.0535 31.9564 21.9193 30.2352 23.7875C30.2304 23.7996 30.228 23.8092 30.2231 23.8213C30.2617 25.2339 30.5654 26.6199 30.7728 28.0157C33.2629 25.7787 35.753 23.5392 38.2432 21.2998L38.5493 21.9193C38.6843 21.8084 38.8193 21.6951 38.9519 21.5818C38.9109 21.3118 38.8699 21.0419 38.8313 20.7719C39.7208 19.9716 40.6128 19.1712 41.5023 18.3685L47.2395 31.781C46.3283 32.7935 45.4195 33.8083 44.5107 34.8208C44.5685 35.8525 44.6264 36.8842 44.6842 37.9159L48.828 34.3049C49.0643 34.6978 49.3029 35.0907 49.5392 35.4837C49.6525 35.4451 49.7682 35.4065 49.8815 35.368C49.8622 34.9316 49.8429 34.4953 49.8236 34.059C51.511 34.3555 53.196 34.6496 54.8834 34.9461C54.4182 34.0421 53.9529 33.1406 53.4877 32.2366C52.1209 31.8437 50.7565 31.4508 49.3921 31.0602L45.9835 16.9125L49.1776 17.2765L49.4885 17.8864L49.814 17.9033C49.8646 17.7803 49.9152 17.6574 49.9658 17.5345C53.6058 18.1034 57.2434 18.6698 60.8834 19.2387C60.6712 18.759 60.4808 18.3733 60.3434 18.113C59.895 17.2693 59.4057 16.4425 59.0031 15.5746C58.9453 15.4517 58.8898 15.3288 58.8368 15.2034C56.1442 14.5236 53.4515 13.8438 50.7565 13.1617C50.6794 12.8169 50.6022 12.4698 50.5251 12.1227C50.272 11.9901 49.8525 11.8069 49.3077 11.7491C48.869 11.7008 48.4978 11.7491 48.2447 11.8021C48.2591 12.1637 48.276 12.5253 48.2905 12.8868C46.9189 12.6241 45.5472 12.3589 44.1756 12.0962C43.679 10.0568 42.8016 7.29188 41.1407 4.29311C40.4464 3.0372 38.841 0.139675 38.0503 0.397608Z" fill="#414042"/>
</g>
</g>
</g>
</g>
<mask id="mask4_9_403" style="mask-type:luminance" maskUnits="userSpaceOnUse" x="50" y="37" width="47" height="47">
<path d="M50.1973 37.0265H96.4805V83.3098H50.1973V37.0265Z" fill="white"/>
</mask>
<g mask="url(#mask4_9_403)">
<mask id="mask5_9_403" style="mask-type:luminance" maskUnits="userSpaceOnUse" x="17" y="-1" width="97" height="88">
<path d="M17.799 63.3958L37.385 -0.308716L113.036 22.951L93.448 86.6555L17.799 63.3958Z" fill="white"/>
</mask>
<g mask="url(#mask5_9_403)">
<mask id="mask6_9_403" style="mask-type:luminance" maskUnits="userSpaceOnUse" x="17" y="-1" width="97" height="88">
<path d="M17.799 63.3958L37.385 -0.308716L113.036 22.951L93.448 86.6555L17.799 63.3958Z" fill="white"/>
</mask>
<g mask="url(#mask6_9_403)">
<mask id="mask7_9_403" style="mask-type:luminance" maskUnits="userSpaceOnUse" x="17" y="-1" width="97" height="88">
<path d="M17.799 63.3958L37.385 -0.308716L113.036 22.951L93.448 86.6555L17.799 63.3958Z" fill="white"/>
</mask>
<g mask="url(#mask7_9_403)">
<path d="M71.4176 75.8441C75.465 79.2767 80.9225 82.8058 86.3295 83.2156C88.7569 83.4519 91.4279 83.0734 93.3708 81.4728C95.2776 79.9421 96.2515 77.5242 96.4419 75.1378C95.7332 78.1148 93.9542 80.8508 90.871 81.6608C89.4464 82.0489 87.9446 81.9959 86.4958 81.7669C80.9274 80.9545 75.1371 76.4853 71.1404 72.6645C66.9966 68.6822 63.4121 64.131 60.3193 59.2833C57.5182 54.8864 55.1438 50.2412 53.1647 45.408C52.0558 42.713 51.0843 39.948 50.1996 37.171C52.5042 51.6683 60.2759 66.2523 71.4176 75.8441Z" fill="#414042"/>
</g>
</g>
</g>
</g>
<mask id="mask8_9_403" style="mask-type:luminance" maskUnits="userSpaceOnUse" x="31" y="52" width="83" height="10">
<path d="M31.1995 52.1458H113.024V61.5904H31.1995V52.1458Z" fill="white"/>
</mask>
<g mask="url(#mask8_9_403)">
<path d="M31.1995 52.1458H113.022V61.5904H31.1995V52.1458Z" fill="#3B505A"/>
</g>
<path d="M41.64 60V54.456H45.352V55.504H42.888V56.664H45.08V57.712H42.888V60H41.64ZM55.7793 57.224C55.7793 57.496 55.8113 57.7413 55.8753 57.96C55.9446 58.1787 56.0406 58.368 56.1633 58.528C56.2913 58.6827 56.4459 58.8027 56.6273 58.888C56.8086 58.9733 57.0166 59.016 57.2513 59.016C57.4806 59.016 57.6859 58.9733 57.8673 58.888C58.0539 58.8027 58.2086 58.6827 58.3313 58.528C58.4593 58.368 58.5553 58.1787 58.6193 57.96C58.6886 57.7413 58.7233 57.496 58.7233 57.224C58.7233 56.952 58.6886 56.7067 58.6193 56.488C58.5553 56.264 58.4593 56.0747 58.3313 55.92C58.2086 55.76 58.0539 55.6373 57.8673 55.552C57.6859 55.4667 57.4806 55.424 57.2513 55.424C57.0166 55.424 56.8086 55.4693 56.6273 55.56C56.4459 55.6453 56.2913 55.768 56.1633 55.928C56.0406 56.0827 55.9446 56.272 55.8753 56.496C55.8113 56.7147 55.7793 56.9573 55.7793 57.224ZM60.0113 57.224C60.0113 57.6987 59.9393 58.1173 59.7953 58.48C59.6566 58.8373 59.4646 59.1387 59.2193 59.384C58.9739 59.624 58.6806 59.8053 58.3393 59.928C58.0033 60.0507 57.6406 60.112 57.2513 60.112C56.8726 60.112 56.5153 60.0507 56.1793 59.928C55.8433 59.8053 55.5499 59.624 55.2993 59.384C55.0486 59.1387 54.8513 58.8373 54.7073 58.48C54.5633 58.1173 54.4913 57.6987 54.4913 57.224C54.4913 56.7493 54.5659 56.3333 54.7153 55.976C54.8646 55.6133 55.0646 55.3093 55.3153 55.064C55.5713 54.8187 55.8646 54.6347 56.1953 54.512C56.5313 54.3893 56.8833 54.328 57.2513 54.328C57.6299 54.328 57.9873 54.3893 58.3233 54.512C58.6593 54.6347 58.9526 54.8187 59.2033 55.064C59.4539 55.3093 59.6513 55.6133 59.7953 55.976C59.9393 56.3333 60.0113 56.7493 60.0113 57.224ZM71.2356 54.392C72.0676 54.392 72.7049 54.5413 73.1476 54.84C73.5902 55.1333 73.8116 55.592 73.8116 56.216C73.8116 56.6053 73.7209 56.9227 73.5396 57.168C73.3636 57.408 73.1076 57.5973 72.7716 57.736C72.8836 57.8747 73.0009 58.0347 73.1236 58.216C73.2462 58.392 73.3662 58.5787 73.4836 58.776C73.6062 58.968 73.7236 59.1707 73.8356 59.384C73.9476 59.592 74.0516 59.7973 74.1476 60H72.7476C72.6462 59.8187 72.5422 59.6347 72.4356 59.448C72.3342 59.2613 72.2276 59.08 72.1156 58.904C72.0089 58.728 71.9022 58.5627 71.7956 58.408C71.6889 58.248 71.5822 58.104 71.4756 57.976H70.8596V60H69.6116V54.536C69.8836 54.4827 70.1636 54.4453 70.4516 54.424C70.7449 54.4027 71.0062 54.392 71.2356 54.392ZM71.3076 55.456C71.2169 55.456 71.1342 55.4587 71.0596 55.464C70.9902 55.4693 70.9236 55.4747 70.8596 55.48V56.984H71.2116C71.6809 56.984 72.0169 56.9253 72.2196 56.808C72.4222 56.6907 72.5236 56.4907 72.5236 56.208C72.5236 55.936 72.4196 55.744 72.2116 55.632C72.0089 55.5147 71.7076 55.456 71.3076 55.456ZM84.9795 54.456C85.0755 54.632 85.1848 54.8507 85.3075 55.112C85.4355 55.368 85.5662 55.648 85.6995 55.952C85.8382 56.2507 85.9742 56.5573 86.1075 56.872C86.2408 57.1867 86.3662 57.4827 86.4835 57.76C86.6008 57.4827 86.7262 57.1867 86.8595 56.872C86.9928 56.5573 87.1262 56.2507 87.2595 55.952C87.3982 55.648 87.5288 55.368 87.6515 55.112C87.7795 54.8507 87.8915 54.632 87.9875 54.456H89.1235C89.1768 54.824 89.2248 55.2373 89.2675 55.696C89.3155 56.1493 89.3555 56.624 89.3875 57.12C89.4248 57.6107 89.4568 58.104 89.4835 58.6C89.5155 59.096 89.5422 59.5627 89.5635 60H88.3475C88.3315 59.4613 88.3102 58.8747 88.2835 58.24C88.2568 57.6053 88.2168 56.9653 88.1635 56.32C88.0675 56.544 87.9608 56.792 87.8435 57.064C87.7262 57.336 87.6088 57.608 87.4915 57.88C87.3795 58.152 87.2702 58.4133 87.1635 58.664C87.0568 58.9093 86.9662 59.12 86.8915 59.296H86.0195C85.9448 59.12 85.8542 58.9093 85.7475 58.664C85.6408 58.4133 85.5288 58.152 85.4115 57.88C85.2995 57.608 85.1848 57.336 85.0675 57.064C84.9502 56.792 84.8435 56.544 84.7475 56.32C84.6942 56.9653 84.6542 57.6053 84.6275 58.24C84.6008 58.8747 84.5795 59.4613 84.5635 60H83.3475C83.3688 59.5627 83.3928 59.096 83.4195 58.6C83.4515 58.104 83.4835 57.6107 83.5155 57.12C83.5528 56.624 83.5928 56.1493 83.6355 55.696C83.6835 55.2373 83.7342 54.824 83.7875 54.456H84.9795ZM102.959 60C102.901 59.808 102.834 59.6107 102.759 59.408C102.69 59.2053 102.621 59.0027 102.551 58.8H100.391C100.322 59.0027 100.25 59.2053 100.175 59.408C100.106 59.6107 100.042 59.808 99.9832 60H98.6872C98.8952 59.4027 99.0925 58.8507 99.2792 58.344C99.4659 57.8373 99.6472 57.36 99.8232 56.912C100.005 56.464 100.181 56.04 100.351 55.64C100.527 55.2347 100.709 54.84 100.895 54.456H102.087C102.269 54.84 102.447 55.2347 102.623 55.64C102.799 56.04 102.975 56.464 103.151 56.912C103.333 57.36 103.517 57.8373 103.703 58.344C103.89 58.8507 104.087 59.4027 104.295 60H102.959ZM101.463 55.712C101.437 55.792 101.397 55.9013 101.343 56.04C101.29 56.1787 101.229 56.3387 101.159 56.52C101.09 56.7013 101.013 56.9013 100.927 57.12C100.847 57.3387 100.765 57.568 100.679 57.808H102.255C102.17 57.568 102.087 57.3387 102.007 57.12C101.927 56.9013 101.85 56.7013 101.775 56.52C101.706 56.3387 101.645 56.1787 101.591 56.04C101.538 55.9013 101.495 55.792 101.463 55.712Z" fill="white"/>
</svg>
